<?xml version="1.0" standalone="no"?>
<!DOCTYPE svg PUBLIC "-//W3C//DTD SVG 20010904//EN"
 "http://www.w3.org/TR/2001/REC-SVG-20010904/DTD/svg10.dtd">
<svg version="1.0" xmlns="http://www.w3.org/2000/svg"
 width="700.000000pt" height="700.000000pt" viewBox="0 0 700.000000 700.000000"
 preserveAspectRatio="xMidYMid meet">
<metadata>
Created by potrace 1.14, written by Peter Selinger 2001-2017
</metadata>
<g transform="translate(0.000000,700.000000) scale(0.100000,-0.100000)"
fill="#000000" stroke="none">
<path d="M3330 4645 c-159 -31 -288 -97 -395 -200 -92 -90 -130 -148 -168
-259 -15 -46 -21 -87 -21 -171 -1 -133 16 -194 80 -289 24 -37 44 -69 44 -71
0 -3 -24 -17 -52 -31 -285 -144 -440 -375 -453 -672 -10 -212 56 -384 210
-547 97 -103 302 -218 427 -240 18 -4 51 -10 73 -15 22 -5 109 -8 195 -6 308
6 517 85 747 282 l43 37 43 -39 c24 -22 70 -62 103 -90 185 -161 190 -164 263
-164 86 0 125 26 163 109 35 76 15 159 -54 231 -32 33 -180 169 -257 237 l-35
30 37 85 c71 166 126 373 122 459 -4 78 -55 158 -115 181 -38 15 -136 11 -170
-7 -44 -23 -59 -52 -76 -150 -14 -78 -64 -247 -84 -285 -7 -11 -81 58 -316
295 -354 358 -423 434 -467 524 -28 57 -32 75 -32 146 0 68 4 88 27 131 56
107 154 154 310 150 165 -5 255 -43 364 -150 81 -81 110 -95 183 -89 178 16
216 219 71 377 -78 85 -222 154 -396 191 -99 22 -325 27 -414 10z m-197 -1288
c7 -6 50 -55 97 -107 97 -108 264 -276 429 -431 l112 -106 -63 -48 c-89 -67
-165 -102 -268 -122 -37 -8 -188 -7 -245 0 -205 27 -350 147 -396 330 -17 71
-7 201 22 268 43 100 90 144 207 195 87 38 89 39 105 21z"/>
<path d="M1215 4605 c-136 -41 -272 -171 -334 -320 -62 -150 -38 -341 55 -444
56 -63 118 -91 210 -98 214 -16 398 144 354 308 -7 24 -22 46 -41 60 -27 19
-35 20 -69 10 -56 -16 -111 -13 -147 9 -43 26 -56 54 -50 104 7 51 60 102 136
131 29 11 59 27 67 36 23 25 31 70 22 116 -17 79 -105 118 -203 88z"/>
<path d="M1989 4606 c-144 -37 -304 -206 -353 -374 -22 -75 -16 -220 12 -290
28 -72 79 -132 143 -167 50 -27 62 -30 154 -30 87 0 107 3 156 26 110 52 179
141 179 231 0 51 -16 84 -50 110 -22 16 -31 17 -80 6 -100 -21 -176 13 -184
83 -8 68 41 127 134 163 79 30 93 46 94 108 1 113 -79 166 -205 134z"/>
<path d="M5305 3043 c-124 -28 -223 -116 -240 -214 -12 -64 3 -114 40 -141 33
-23 38 -24 92 -13 114 23 195 -31 179 -119 -11 -57 -78 -111 -174 -141 -35
-10 -56 -51 -55 -105 1 -57 28 -101 73 -120 46 -19 136 -7 206 26 118 58 249
229 283 368 15 59 15 158 2 204 -5 17 -8 32 -5 32 2 0 -9 26 -25 58 -71 141
-212 202 -376 165z"/>
<path d="M6055 3049 c-99 -18 -205 -91 -240 -166 -21 -44 -27 -108 -14 -148
10 -33 71 -81 89 -70 11 7 53 16 80 18 41 3 91 -16 114 -44 59 -70 7 -166
-115 -210 -70 -26 -91 -51 -91 -111 1 -100 47 -142 152 -135 89 6 167 44 244
121 174 173 227 402 134 581 -43 82 -126 149 -200 160 -72 10 -115 11 -153 4z"/>
</g>
</svg>
